<mxfile host="app.diagrams.net" modified="2021-04-03T12:57:15.471Z" agent="5.0 (Windows)" etag="c2msJXTAzOYhoyk0oKel" version="14.5.4" type="github">
  <diagram id="BcD9iKkXZ9pv2iEqz8gC" name="Page-1">
    <mxGraphModel dx="715" dy="441" grid="1" gridSize="10" guides="1" tooltips="1" connect="1" arrows="1" fold="1" page="1" pageScale="1" pageWidth="827" pageHeight="1169" math="0" shadow="0">
      <root>
        <mxCell id="0" />
        <mxCell id="1" parent="0" />
        <mxCell id="AflbPfulqV4_eIlPZN1Z-5" style="edgeStyle=orthogonalEdgeStyle;rounded=0;orthogonalLoop=1;jettySize=auto;html=1;exitX=1;exitY=0.5;exitDx=0;exitDy=0;entryX=0;entryY=0.5;entryDx=0;entryDy=0;fontSize=16;" edge="1" parent="1" source="AflbPfulqV4_eIlPZN1Z-3">
          <mxGeometry relative="1" as="geometry">
            <mxPoint x="200" y="280" as="targetPoint" />
          </mxGeometry>
        </mxCell>
        <mxCell id="AflbPfulqV4_eIlPZN1Z-26" style="edgeStyle=orthogonalEdgeStyle;rounded=0;orthogonalLoop=1;jettySize=auto;html=1;exitX=0.5;exitY=1;exitDx=0;exitDy=0;entryX=0;entryY=0.5;entryDx=0;entryDy=0;fontSize=14;" edge="1" parent="1" source="AflbPfulqV4_eIlPZN1Z-3" target="AflbPfulqV4_eIlPZN1Z-25">
          <mxGeometry relative="1" as="geometry" />
        </mxCell>
        <mxCell id="AflbPfulqV4_eIlPZN1Z-3" value="地块实体对象" style="rounded=1;whiteSpace=wrap;html=1;strokeWidth=2;fontSize=16;fontStyle=1" vertex="1" parent="1">
          <mxGeometry x="30" y="250" width="120" height="60" as="geometry" />
        </mxCell>
        <mxCell id="AflbPfulqV4_eIlPZN1Z-23" style="edgeStyle=orthogonalEdgeStyle;rounded=0;orthogonalLoop=1;jettySize=auto;html=1;exitX=1;exitY=0.5;exitDx=0;exitDy=0;entryX=0;entryY=0.5;entryDx=0;entryDy=0;fontSize=16;" edge="1" parent="1" source="AflbPfulqV4_eIlPZN1Z-8" target="AflbPfulqV4_eIlPZN1Z-22">
          <mxGeometry relative="1" as="geometry" />
        </mxCell>
        <mxCell id="AflbPfulqV4_eIlPZN1Z-8" value="坐标映射" style="rounded=1;whiteSpace=wrap;html=1;strokeWidth=2;fontSize=16;fontStyle=1" vertex="1" parent="1">
          <mxGeometry x="340" y="250" width="120" height="60" as="geometry" />
        </mxCell>
        <mxCell id="AflbPfulqV4_eIlPZN1Z-13" style="edgeStyle=orthogonalEdgeStyle;rounded=0;orthogonalLoop=1;jettySize=auto;html=1;exitX=0.5;exitY=1;exitDx=0;exitDy=0;fontSize=16;" edge="1" parent="1" source="AflbPfulqV4_eIlPZN1Z-10">
          <mxGeometry relative="1" as="geometry">
            <mxPoint x="730" y="400" as="targetPoint" />
          </mxGeometry>
        </mxCell>
        <mxCell id="AflbPfulqV4_eIlPZN1Z-10" value="坐标转换" style="rounded=1;whiteSpace=wrap;html=1;strokeWidth=2;fontSize=16;fontStyle=1" vertex="1" parent="1">
          <mxGeometry x="670" y="250" width="120" height="60" as="geometry" />
        </mxCell>
        <mxCell id="AflbPfulqV4_eIlPZN1Z-14" style="edgeStyle=orthogonalEdgeStyle;rounded=0;orthogonalLoop=1;jettySize=auto;html=1;exitX=1;exitY=0.5;exitDx=0;exitDy=0;fontSize=16;entryX=0;entryY=0.5;entryDx=0;entryDy=0;" edge="1" parent="1" source="AflbPfulqV4_eIlPZN1Z-12" target="AflbPfulqV4_eIlPZN1Z-18">
          <mxGeometry relative="1" as="geometry">
            <mxPoint x="590" y="430" as="targetPoint" />
          </mxGeometry>
        </mxCell>
        <mxCell id="AflbPfulqV4_eIlPZN1Z-12" value="点击测试" style="rounded=1;whiteSpace=wrap;html=1;strokeWidth=2;fontSize=16;fontStyle=1" vertex="1" parent="1">
          <mxGeometry x="400" y="410" width="120" height="60" as="geometry" />
        </mxCell>
        <mxCell id="AflbPfulqV4_eIlPZN1Z-17" value="创建锚点" style="rounded=1;whiteSpace=wrap;html=1;strokeWidth=2;fontSize=16;fontStyle=1" vertex="1" parent="1">
          <mxGeometry x="670" y="585" width="120" height="60" as="geometry" />
        </mxCell>
        <mxCell id="AflbPfulqV4_eIlPZN1Z-19" style="edgeStyle=orthogonalEdgeStyle;rounded=0;orthogonalLoop=1;jettySize=auto;html=1;exitX=0.5;exitY=1;exitDx=0;exitDy=0;fontSize=16;" edge="1" parent="1" source="AflbPfulqV4_eIlPZN1Z-18" target="AflbPfulqV4_eIlPZN1Z-17">
          <mxGeometry relative="1" as="geometry" />
        </mxCell>
        <mxCell id="AflbPfulqV4_eIlPZN1Z-18" value="屏幕坐标" style="ellipse;whiteSpace=wrap;html=1;aspect=fixed;strokeWidth=2;fontSize=16;fontStyle=1" vertex="1" parent="1">
          <mxGeometry x="690" y="400" width="80" height="80" as="geometry" />
        </mxCell>
        <mxCell id="AflbPfulqV4_eIlPZN1Z-21" style="edgeStyle=orthogonalEdgeStyle;rounded=0;orthogonalLoop=1;jettySize=auto;html=1;exitX=1;exitY=0.5;exitDx=0;exitDy=0;entryX=0;entryY=0.5;entryDx=0;entryDy=0;fontSize=16;" edge="1" parent="1" source="AflbPfulqV4_eIlPZN1Z-20" target="AflbPfulqV4_eIlPZN1Z-8">
          <mxGeometry relative="1" as="geometry" />
        </mxCell>
        <mxCell id="AflbPfulqV4_eIlPZN1Z-20" value="地块坐标" style="ellipse;whiteSpace=wrap;html=1;aspect=fixed;strokeWidth=2;fontSize=16;fontStyle=1" vertex="1" parent="1">
          <mxGeometry x="200" y="240" width="80" height="80" as="geometry" />
        </mxCell>
        <mxCell id="AflbPfulqV4_eIlPZN1Z-24" style="edgeStyle=orthogonalEdgeStyle;rounded=0;orthogonalLoop=1;jettySize=auto;html=1;exitX=1;exitY=0.5;exitDx=0;exitDy=0;entryX=0;entryY=0.5;entryDx=0;entryDy=0;fontSize=16;" edge="1" parent="1" source="AflbPfulqV4_eIlPZN1Z-22" target="AflbPfulqV4_eIlPZN1Z-10">
          <mxGeometry relative="1" as="geometry" />
        </mxCell>
        <mxCell id="AflbPfulqV4_eIlPZN1Z-22" value="虚拟场景下坐标" style="ellipse;whiteSpace=wrap;html=1;aspect=fixed;strokeWidth=2;fontSize=16;fontStyle=1" vertex="1" parent="1">
          <mxGeometry x="530" y="240" width="80" height="80" as="geometry" />
        </mxCell>
        <mxCell id="AflbPfulqV4_eIlPZN1Z-27" style="edgeStyle=orthogonalEdgeStyle;rounded=0;orthogonalLoop=1;jettySize=auto;html=1;exitX=0.5;exitY=1;exitDx=0;exitDy=0;entryX=0;entryY=0.5;entryDx=0;entryDy=0;fontSize=14;" edge="1" parent="1" source="AflbPfulqV4_eIlPZN1Z-25" target="AflbPfulqV4_eIlPZN1Z-17">
          <mxGeometry relative="1" as="geometry" />
        </mxCell>
        <mxCell id="AflbPfulqV4_eIlPZN1Z-25" value="表示地块数据的Sceneform节点" style="ellipse;whiteSpace=wrap;html=1;aspect=fixed;strokeWidth=2;fontSize=14;fontStyle=1" vertex="1" parent="1">
          <mxGeometry x="200" y="390" width="110" height="110" as="geometry" />
        </mxCell>
        <mxCell id="AflbPfulqV4_eIlPZN1Z-28" value="锚定" style="text;html=1;strokeColor=none;fillColor=none;align=center;verticalAlign=middle;whiteSpace=wrap;rounded=0;fontSize=16;fontStyle=1" vertex="1" parent="1">
          <mxGeometry x="394" y="570" width="96" height="35" as="geometry" />
        </mxCell>
      </root>
    </mxGraphModel>
  </diagram>
</mxfile>
